<svg width="60" height="62" viewBox="0 0 60 62" fill="none" xmlns="http://www.w3.org/2000/svg">
<path d="M23.448 11.6196C26.3255 6.51647 33.6745 6.51647 36.552 11.6196C37.88 13.9746 40.3829 15.4358 43.0865 15.4469C48.872 15.4707 52.5568 21.6849 49.7546 26.7467L49.5185 27.1731C48.2004 29.5541 48.2004 32.4459 49.5185 34.8269L49.7546 35.2533C52.5568 40.3151 48.872 46.5293 43.0865 46.5531C40.3829 46.5642 37.88 48.0254 36.552 50.3804C33.6745 55.4835 26.3255 55.4835 23.448 50.3804C22.12 48.0254 19.6171 46.5642 16.9135 46.5531C11.128 46.5293 7.4432 40.3151 10.2454 35.2533L10.4815 34.8269C11.7996 32.4459 11.7996 29.5541 10.4815 27.1731L10.2454 26.7467C7.4432 21.6849 11.128 15.4707 16.9135 15.4469C19.6171 15.4358 22.12 13.9746 23.448 11.6196Z" fill="#F5AB54"/>
<path d="M30.2755 20.9238C32.4702 19.0192 35.915 20.297 36.4364 23.2091C36.6771 24.5537 37.6122 25.6784 38.8798 26.1545C41.5987 27.1757 42.3 30.767 40.1413 32.6709L40.0015 32.7942C38.99 33.6863 38.5152 35.0532 38.7467 36.4064L38.7787 36.5934C39.2727 39.4813 36.5213 41.7918 33.7945 40.793C32.5233 40.3274 31.1095 40.5808 30.0962 41.4602C27.9015 43.3649 24.4567 42.0871 23.9353 39.175C23.6945 37.8304 22.7594 36.7057 21.4919 36.2296C18.7729 35.2084 18.0717 31.6171 20.2303 29.7132L20.3701 29.5899C21.3816 28.6978 21.8565 27.3309 21.625 25.9777L21.593 25.7907C21.0989 22.9028 23.8504 20.5922 26.5772 21.591C27.8483 22.0567 29.2622 21.8032 30.2755 20.9238Z" fill="#EE5A36"/>
<path d="M29.7586 25.8292C30.8733 24.8688 32.6155 25.5151 32.8846 26.9887C33.009 27.6695 33.4827 28.238 34.1249 28.4791C35.506 28.9978 35.857 30.8228 34.757 31.7859L34.7093 31.8277C34.1961 32.2771 33.9557 32.969 34.0752 33.6531L34.0863 33.7167C34.3424 35.1828 32.9483 36.3606 31.5633 35.8532C30.9192 35.6172 30.2038 35.7446 29.6888 36.1882C28.5741 37.1486 26.832 36.5023 26.5628 35.0287C26.4385 34.3479 25.9647 33.7794 25.3225 33.5383C23.9414 33.0196 23.5905 31.1946 24.6904 30.2315L24.7381 30.1897C25.2513 29.7403 25.4917 29.0484 25.3722 28.3643L25.3611 28.3007C25.1051 26.8346 26.4991 25.6568 27.8842 26.1642C28.5282 26.4002 29.2436 26.2728 29.7586 25.8292Z" fill="#CFA4CC"/>
</svg>
